<svg width="74" height="12" viewBox="0 0 74 12" fill="none" xmlns="http://www.w3.org/2000/svg">
<path d="M3.056 0.456999C3.42 0.526333 3.836 0.595666 4.304 0.665C4.772 0.725666 5.253 0.786333 5.747 0.847C6.24967 0.907666 6.72633 0.959666 7.177 1.003C7.63633 1.03767 8.03067 1.068 8.36 1.094L8.152 2.615C7.814 2.589 7.41533 2.55433 6.956 2.511C6.50533 2.459 6.033 2.40267 5.539 2.342C5.05367 2.28133 4.57267 2.22067 4.096 2.16C3.61933 2.09933 3.19033 2.03433 2.809 1.965L3.056 0.456999ZM8.815 4.591C8.64167 4.71233 8.48567 4.82933 8.347 4.942C8.20833 5.046 8.08267 5.15 7.97 5.254C7.814 5.37533 7.632 5.53133 7.424 5.722C7.22467 5.91267 7.01667 6.10767 6.8 6.307C6.58333 6.49767 6.38833 6.67533 6.215 6.84C6.05033 7.00467 5.929 7.13033 5.851 7.217C5.903 7.20833 5.981 7.21267 6.085 7.23C6.189 7.24733 6.27567 7.27333 6.345 7.308C6.53567 7.36867 6.69167 7.47267 6.813 7.62C6.93433 7.75867 7.03833 7.94933 7.125 8.192C7.16833 8.30467 7.20733 8.43467 7.242 8.582C7.28533 8.72067 7.32867 8.85933 7.372 8.998C7.41533 9.13667 7.45867 9.26233 7.502 9.375C7.56267 9.57433 7.66667 9.726 7.814 9.83C7.96133 9.934 8.16067 9.986 8.412 9.986C8.75 9.986 9.07067 9.97733 9.374 9.96C9.67733 9.934 9.96333 9.90367 10.232 9.869C10.5007 9.83433 10.7433 9.79533 10.96 9.752L10.856 11.455C10.6827 11.4897 10.4357 11.52 10.115 11.546C9.803 11.5807 9.478 11.6067 9.14 11.624C8.81067 11.6413 8.53333 11.65 8.308 11.65C7.69267 11.65 7.20733 11.5677 6.852 11.403C6.50533 11.247 6.24967 10.9567 6.085 10.532C6.05033 10.402 6.007 10.2547 5.955 10.09C5.903 9.92533 5.85533 9.765 5.812 9.609C5.77733 9.44433 5.74267 9.31 5.708 9.206C5.63867 8.972 5.539 8.81167 5.409 8.725C5.279 8.62967 5.149 8.582 5.019 8.582C4.88033 8.582 4.74167 8.62967 4.603 8.725C4.46433 8.81167 4.317 8.93733 4.161 9.102C4.07433 9.18867 3.966 9.30133 3.836 9.44C3.71467 9.57867 3.57167 9.73467 3.407 9.908C3.251 10.0813 3.08633 10.2677 2.913 10.467C2.74833 10.6663 2.575 10.8743 2.393 11.091C2.211 11.3077 2.029 11.533 1.847 11.767L0.313 10.688C0.425667 10.584 0.56 10.467 0.716 10.337C0.872 10.1983 1.03667 10.0467 1.21 9.882C1.32267 9.76933 1.483 9.609 1.691 9.401C1.899 9.18433 2.13733 8.94167 2.406 8.673C2.68333 8.40433 2.96933 8.11833 3.264 7.815C3.56733 7.503 3.87067 7.19533 4.174 6.892C4.47733 6.58867 4.759 6.30267 5.019 6.034C5.28767 5.75667 5.52167 5.514 5.721 5.306C5.539 5.31467 5.33533 5.32767 5.11 5.345C4.88467 5.35367 4.65067 5.36667 4.408 5.384C4.16533 5.39267 3.927 5.41 3.693 5.436C3.459 5.45333 3.24233 5.47067 3.043 5.488C2.84367 5.50533 2.666 5.52267 2.51 5.54C2.28467 5.55733 2.07667 5.58333 1.886 5.618C1.69533 5.644 1.53067 5.66567 1.392 5.683L1.236 3.889C1.38333 3.89767 1.56967 3.91067 1.795 3.928C2.02033 3.93667 2.25 3.93667 2.484 3.928C2.60533 3.928 2.80467 3.92367 3.082 3.915C3.368 3.90633 3.69733 3.89333 4.07 3.876C4.44267 3.85867 4.81967 3.84133 5.201 3.824C5.591 3.798 5.955 3.772 6.293 3.746C6.63967 3.71133 6.917 3.681 7.125 3.655C7.24633 3.63767 7.38067 3.616 7.528 3.59C7.684 3.564 7.79667 3.538 7.866 3.512L8.815 4.591ZM23.7557 11H21.9357L17.8147 4.773V11H15.9947V1.913H17.8147L21.9357 8.153V1.913H23.7557V11ZM28.7522 11.117C28.0589 11.117 27.4349 10.9653 26.8802 10.662C26.3256 10.35 25.8879 9.91233 25.5672 9.349C25.2552 8.78567 25.0992 8.13567 25.0992 7.399C25.0992 6.66233 25.2596 6.01233 25.5802 5.449C25.9096 4.88567 26.3559 4.45233 26.9192 4.149C27.4826 3.837 28.1109 3.681 28.8042 3.681C29.4976 3.681 30.1259 3.837 30.6892 4.149C31.2526 4.45233 31.6946 4.88567 32.0152 5.449C32.3446 6.01233 32.5092 6.66233 32.5092 7.399C32.5092 8.13567 32.3402 8.78567 32.0022 9.349C31.6729 9.91233 31.2222 10.35 30.6502 10.662C30.0869 10.9653 29.4542 11.117 28.7522 11.117ZM28.7522 9.531C29.0816 9.531 29.3892 9.453 29.6752 9.297C29.9699 9.13233 30.2039 8.88967 30.3772 8.569C30.5506 8.24833 30.6372 7.85833 30.6372 7.399C30.6372 6.71433 30.4552 6.19 30.0912 5.826C29.7359 5.45333 29.2982 5.267 28.7782 5.267C28.2582 5.267 27.8206 5.45333 27.4652 5.826C27.1186 6.19 26.9452 6.71433 26.9452 7.399C26.9452 8.08367 27.1142 8.61233 27.4522 8.985C27.7989 9.349 28.2322 9.531 28.7522 9.531ZM35.9633 5.293V8.777C35.9633 9.01967 36.0196 9.19733 36.1323 9.31C36.2536 9.414 36.4529 9.466 36.7303 9.466H37.5753V11H36.4313C34.8973 11 34.1303 10.2547 34.1303 8.764V5.293H33.2723V3.798H34.1303V2.017H35.9633V3.798H37.5753V5.293H35.9633ZM38.4163 7.373C38.4163 6.645 38.5593 5.99933 38.8453 5.436C39.14 4.87267 39.5343 4.43933 40.0283 4.136C40.531 3.83267 41.09 3.681 41.7053 3.681C42.2426 3.681 42.7106 3.78933 43.1093 4.006C43.5166 4.22267 43.8416 4.49567 44.0843 4.825V3.798H45.9173V11H44.0843V9.947C43.8503 10.285 43.5253 10.5667 43.1093 10.792C42.702 11.0087 42.2296 11.117 41.6923 11.117C41.0856 11.117 40.531 10.961 40.0283 10.649C39.5343 10.337 39.14 9.89933 38.8453 9.336C38.5593 8.764 38.4163 8.10967 38.4163 7.373ZM44.0843 7.399C44.0843 6.957 43.9976 6.58 43.8243 6.268C43.651 5.94733 43.417 5.70467 43.1223 5.54C42.8276 5.36667 42.5113 5.28 42.1733 5.28C41.8353 5.28 41.5233 5.36233 41.2373 5.527C40.9513 5.69167 40.7173 5.93433 40.5353 6.255C40.362 6.567 40.2753 6.93967 40.2753 7.373C40.2753 7.80633 40.362 8.18767 40.5353 8.517C40.7173 8.83767 40.9513 9.08467 41.2373 9.258C41.532 9.43133 41.844 9.518 42.1733 9.518C42.5113 9.518 42.8276 9.43567 43.1223 9.271C43.417 9.09767 43.651 8.855 43.8243 8.543C43.9976 8.22233 44.0843 7.841 44.0843 7.399ZM49.5149 4.851C49.7489 4.50433 50.0695 4.22267 50.4769 4.006C50.8929 3.78933 51.3652 3.681 51.8939 3.681C52.5092 3.681 53.0639 3.83267 53.5579 4.136C54.0605 4.43933 54.4549 4.87267 54.7409 5.436C55.0355 5.99067 55.1829 6.63633 55.1829 7.373C55.1829 8.10967 55.0355 8.764 54.7409 9.336C54.4549 9.89933 54.0605 10.337 53.5579 10.649C53.0639 10.961 52.5092 11.117 51.8939 11.117C51.3565 11.117 50.8842 11.013 50.4769 10.805C50.0782 10.5883 49.7575 10.311 49.5149 9.973V11H47.6949V1.38H49.5149V4.851ZM53.3239 7.373C53.3239 6.93967 53.2329 6.567 53.0509 6.255C52.8775 5.93433 52.6435 5.69167 52.3489 5.527C52.0629 5.36233 51.7509 5.28 51.4129 5.28C51.0835 5.28 50.7715 5.36667 50.4769 5.54C50.1909 5.70467 49.9569 5.94733 49.7749 6.268C49.6015 6.58867 49.5149 6.96567 49.5149 7.399C49.5149 7.83233 49.6015 8.20933 49.7749 8.53C49.9569 8.85067 50.1909 9.09767 50.4769 9.271C50.7715 9.43567 51.0835 9.518 51.4129 9.518C51.7509 9.518 52.0629 9.43133 52.3489 9.258C52.6435 9.08467 52.8775 8.83767 53.0509 8.517C53.2329 8.19633 53.3239 7.815 53.3239 7.373ZM58.3254 1.38V11H56.5054V1.38H58.3254ZM66.8186 7.243C66.8186 7.503 66.8012 7.737 66.7666 7.945H61.5016C61.5449 8.465 61.7269 8.87233 62.0476 9.167C62.3682 9.46167 62.7626 9.609 63.2306 9.609C63.9066 9.609 64.3876 9.31867 64.6736 8.738H66.6366C66.4286 9.43133 66.0299 10.0033 65.4406 10.454C64.8512 10.896 64.1276 11.117 63.2696 11.117C62.5762 11.117 61.9522 10.9653 61.3976 10.662C60.8516 10.35 60.4226 9.91233 60.1106 9.349C59.8072 8.78567 59.6556 8.13567 59.6556 7.399C59.6556 6.65367 59.8072 5.99933 60.1106 5.436C60.4139 4.87267 60.8386 4.43933 61.3846 4.136C61.9306 3.83267 62.5589 3.681 63.2696 3.681C63.9542 3.681 64.5652 3.82833 65.1026 4.123C65.6486 4.41767 66.0689 4.838 66.3636 5.384C66.6669 5.92133 66.8186 6.541 66.8186 7.243ZM64.9336 6.723C64.9249 6.255 64.7559 5.88233 64.4266 5.605C64.0972 5.319 63.6942 5.176 63.2176 5.176C62.7669 5.176 62.3856 5.31467 62.0736 5.592C61.7702 5.86067 61.5839 6.23767 61.5146 6.723H64.9336ZM70.903 11.117C70.3137 11.117 69.785 11.013 69.317 10.805C68.849 10.5883 68.4763 10.298 68.199 9.934C67.9303 9.57 67.783 9.167 67.757 8.725H69.59C69.6247 9.00233 69.759 9.232 69.993 9.414C70.2357 9.596 70.5347 9.687 70.89 9.687C71.2367 9.687 71.5053 9.61767 71.696 9.479C71.8953 9.34033 71.995 9.16267 71.995 8.946C71.995 8.712 71.8737 8.53867 71.631 8.426C71.397 8.30467 71.02 8.17467 70.5 8.036C69.9627 7.906 69.5207 7.77167 69.174 7.633C68.836 7.49433 68.5413 7.282 68.29 6.996C68.0473 6.71 67.926 6.32433 67.926 5.839C67.926 5.44033 68.0387 5.07633 68.264 4.747C68.498 4.41767 68.8273 4.15767 69.252 3.967C69.6853 3.77633 70.1923 3.681 70.773 3.681C71.631 3.681 72.3157 3.89767 72.827 4.331C73.3383 4.75567 73.62 5.332 73.672 6.06H71.93C71.904 5.774 71.7827 5.54867 71.566 5.384C71.358 5.21067 71.0763 5.124 70.721 5.124C70.3917 5.124 70.136 5.18467 69.954 5.306C69.7807 5.42733 69.694 5.59633 69.694 5.813C69.694 6.05567 69.8153 6.242 70.058 6.372C70.3007 6.49333 70.6777 6.619 71.189 6.749C71.709 6.879 72.138 7.01333 72.476 7.152C72.814 7.29067 73.1043 7.50733 73.347 7.802C73.5983 8.088 73.7283 8.46933 73.737 8.946C73.737 9.362 73.62 9.73467 73.386 10.064C73.1607 10.3933 72.8313 10.6533 72.398 10.844C71.9733 11.026 71.475 11.117 70.903 11.117Z" fill="black" />
</svg>
